inDegrees=no
num_controls=7
num_derivatives=13
num_iterations=136
num_multipliers=7
num_parameters=0
num_slacks=7
num_states=26
objective=0.445690
objective_accelerations=0.057670
objective_balance=0.003531
objective_effort=0.022977
objective_height=0.355971
objective_ligament=0.005541
solver_duration=1947.962212
status=Solve_Succeeded
success=true
DataType=double
version=3
OpenSimVersion=4.5
endheader
time	/jointset/ground_pelvis/pelvis_tilt/value	/jointset/ground_pelvis/pelvis_tx/value	/jointset/ground_pelvis/pelvis_ty/value	/jointset/hip_l/hip_flexion_l/value	/jointset/hip_l/hip_adduction_l/value	/jointset/hip_l/hip_rotation_l/value	/jointset/back/lumbar_extension/value	/jointset/patellofemoral_l/patellar_flexion_l/value	/jointset/knee_l/knee_flexion_l/value	/jointset/knee_l/knee_adduction_l/value	/jointset/knee_l/knee_rotation_l/value	/jointset/ankle_l/ankle_angle_l/value	/jointset/subtalar_l/subtalar_angle_l/value	/jointset/ground_pelvis/pelvis_tilt/speed	/jointset/ground_pelvis/pelvis_tx/speed	/jointset/ground_pelvis/pelvis_ty/speed	/jointset/hip_l/hip_flexion_l/speed	/jointset/hip_l/hip_adduction_l/speed	/jointset/hip_l/hip_rotation_l/speed	/jointset/back/lumbar_extension/speed	/jointset/patellofemoral_l/patellar_flexion_l/speed	/jointset/knee_l/knee_flexion_l/speed	/jointset/knee_l/knee_adduction_l/speed	/jointset/knee_l/knee_rotation_l/speed	/jointset/ankle_l/ankle_angle_l/speed	/jointset/subtalar_l/subtalar_angle_l/speed	/forceset/tau_hip_flexion_l	/forceset/tau_hip_adduction_l	/forceset/tau_hip_rotation_l	/forceset/tau_knee_flexion_l	/forceset/tau_ankle_angle_l	/forceset/tau_subtalar_angle_l	/forceset/tau_lumbar_extension	lambda_cid13_p0	lambda_cid13_p1	lambda_cid13_p2	lambda_cid13_p3	lambda_cid13_p4	lambda_cid13_p5	lambda_cid14_p0	/jointset/ground_pelvis/pelvis_tilt/accel	/jointset/ground_pelvis/pelvis_tx/accel	/jointset/ground_pelvis/pelvis_ty/accel	/jointset/hip_l/hip_flexion_l/accel	/jointset/hip_l/hip_adduction_l/accel	/jointset/hip_l/hip_rotation_l/accel	/jointset/back/lumbar_extension/accel	/jointset/patellofemoral_l/patellar_flexion_l/accel	/jointset/knee_l/knee_flexion_l/accel	/jointset/knee_l/knee_adduction_l/accel	/jointset/knee_l/knee_rotation_l/accel	/jointset/ankle_l/ankle_angle_l/accel	/jointset/subtalar_l/subtalar_angle_l/accel	gamma_cid13_p0	gamma_cid13_p1	gamma_cid13_p2	gamma_cid13_p3	gamma_cid13_p4	gamma_cid13_p5	gamma_cid14_p0
1	-0.5488007873818096	-0.08017914296564223	0.5732961844982853	1.836572658331481	-0.4677917816035392	0.01345584905563895	-0.2617621942557925	1.388958016440858	1.388958016440935	-0.08194710926976916	-0.1745207521086537	0.2234131352453398	-0.008631441493650591	-0.01528030990377943	0.01143709521206858	0.003680820510860949	-0.006979152412408883	-0.002863376015222407	0.003039876035852729	0.0002216127311546244	-0.0001467959773324708	-0.0001467959773324104	-0.0063585242490054	-0.0003251018678838662	0.02167733810136075	0.009037576870005405	-0.3345384962926908	0.0153064778191174	0.0001920705320506141	-0.3035878511740629	0.03420250861300063	0.03050210586590998	0.2854661604260645	-28.94582056341202	-8.840030482372191	1.828639794491445	8.054380055560216	-643.244249045482	-47.44040871200669	-1.32148688954969	1.541269703505667	0.2357739908217525	1.977929110862137	-6.852688250927466	-0.08082384179409748	-2.343691511177524	-0.01645091624396896	-5.329239572086945	-5.329239572087145	-0.6191640239422528	-0.03548676675863132	-0.701861358063552	-0.4806578027062114	6.095989271641526e-09	2.151682452240035e-08	-1.202467277023091e-08	2.502742371077247e-09	-1.248677378847504e-09	2.551847503864433e-08	2.960921672032468e-09
1.01	-0.5488774800991012	-0.08005304987471668	0.5734317258477236	1.836161616327723	-0.4678233119838685	0.01336800640146577	-0.2617598167264027	1.388690240805156	1.388690240805144	-0.08203879058460462	-0.1745242478715994	0.2235949906889984	-0.008563508358291443	-5.901753317208987e-05	0.01378270791384777	0.02342199448679106	-0.07521314729703125	-0.003427277871582705	-0.02059165577650646	0.0002508037012276524	-0.05340350974757769	-0.05340350974757944	-0.01197077421411275	-0.0003499083564706193	0.01468825540472884	0.004565138545915568	-0.3343699738159517	0.01542124237611889	0.0001762069948731749	-0.3034285517433383	0.03405516920324722	0.03051537513994257	0.2853325455179895	-28.97695913607582	-8.844612070185828	1.834248576486401	7.995472454210396	-643.0413851856362	-47.45119953935707	-1.326936168875833	1.512440265531214	0.234133403426457	1.971391070436086	-6.80634131843269	-0.04186171049932888	-2.370376451026632	0.01214068669804249	-5.323162303633026	-5.323162303633167	-0.5312133250704362	0.01765236045916394	-0.698254864286053	-0.4281295942171071	-1.547050703609998e-09	1.436926917139675e-08	3.087786341524366e-08	3.74981703631293e-09	-1.108577920242561e-08	7.521059057301987e-08	-8.700138424642107e-09
1.02	-0.5488019836403504	-0.0799034649580591	0.5737645148428164	1.835068717132877	-0.4678600190533506	0.01304434994221962	-0.2617572399707004	1.387890043026924	1.387890043026825	-0.0821863859675441	-0.1745272657093731	0.2237067906779261	-0.008539818155564741	0.0151575253051526	0.0161354603584707	0.04313034964182677	-0.1433505906297749	-0.003898713845635765	-0.0441228849793277	0.0002614579939036632	-0.1066312244834119	-0.106631224483415	-0.01754133787023992	-0.0002295168303439238	0.007666247155174882	0.0001889903435553514	-0.3342014513392149	0.01553600693312183	0.0001603434576966805	-0.3032692523126144	0.03390782979349356	0.03052864441397691	0.285198930609911	-29.01407274737413	-8.848038097991294	1.839548241629049	7.960128115494916	-642.9221441368669	-47.44011259688278	-1.342612254944837	1.540319797049147	0.2372019393904875	1.971365346683257	-6.833377940551715	-0.06233066533261877	-2.323630989269903	-0.02015825172341409	-5.323439765204754	-5.323439765204856	-0.6108267621462055	-0.006447163815883015	-0.708446468647976	-0.4613997783602572	-9.882908744507696e-09	5.17503071205461e-09	7.309218167198305e-08	4.518140473977893e-09	-2.129914809956125e-08	1.248863139920391e-07	-2.085936961229233e-08
1.03	-0.5485743184243478	-0.07973028440444666	0.5742941438107415	1.833295089383369	-0.4679009087564248	0.01248597765983861	-0.2617546477047307	1.386557803516222	1.386557803516209	-0.08238945647789207	-0.1745283273626158	0.2237481297544464	-0.008559359637297094	0.03037652866343976	0.01850496283504661	0.06278203083555646	-0.2113416193933338	-0.004255710774167739	-0.0675247225681217	0.0002549962238099136	-0.1598030414497262	-0.159803041449722	-0.02306229266442024	4.613628114241318e-05	0.000588723839748962	-0.004074811703656719	-0.3337192384171405	0.01569067942070104	0.0001126144276342337	-0.3029813076692911	0.03385557816913112	0.03061536399530481	0.2848502773012068	-28.99964084570822	-8.901083267517343	1.862689632370713	7.845916862888878	-642.4934895036864	-47.50304331456856	-1.36871640704708	1.512838727119357	0.2374723333870728	1.960051174381373	-6.776968471597536	-0.01886732789756018	-2.344453243227182	0.008810013789637094	-5.312000552792799	-5.312000552791634	-0.5211709482859389	0.04894325566106061	-0.7093312546354523	-0.4055121430648072	-1.822583635750383e-08	-4.040092268801196e-09	1.152994772967965e-07	5.281578695034989e-09	-3.151635645663116e-08	1.74561870144575e-07	-3.30236841784219e-08
1.04	-0.5481944335503844	-0.07953327923974915	0.5750198859243365	1.830842550720756	-0.467944665053042	0.01169438838166426	-0.2617521800257733	1.384694256257767	1.384694256257841	-0.0826474247582258	-0.1745257581433734	0.2237183083994833	-0.008620867484534403	0.045601456897761	0.02090038257548677	0.08235297877582763	-0.2791327732504733	-0.004472032554062606	-0.09076628413863919	0.0002365405913951652	-0.2128927740339623	-0.2128927740339507	-0.02852089186788204	0.0004966576738335962	-0.006565839141499367	-0.008204282757395244	-0.3332370254950695	0.01584535190828216	6.488539757968627e-05	-0.3026933630259686	0.03380332654476861	0.03070208357663508	0.2845016239924978	-28.99120030018753	-8.952921897399019	1.885458826355549	7.755436733659042	-642.148734371268	-47.54479121720711	-1.405514314199898	1.541504772255964	0.2423853921633371	1.955218695991554	-6.793402959267839	-0.03419563560520466	-2.291575785614609	-0.02255702418765624	-5.307022888789127	-5.307022888789217	-0.5983556440025044	0.0285264924250716	-0.7238544018124602	-0.434533579665559	-2.548733240370273e-08	-1.087169510714273e-08	1.575661170031711e-07	6.7943767483354e-09	-4.110251885192166e-08	2.206179085077769e-07	-4.402582559452899e-08
1.05	-0.5476622233679103	-0.07931216213806422	0.5759408587248727	1.827713247209413	-0.4679897575944759	0.01067135960539688	-0.2617499764818942	1.382300308398312	1.382300308398308	-0.08295963410552018	-0.1745176696028383	0.2236164946504881	-0.008722873690013497	0.06084468272072902	0.02332997283671825	0.1018206186568245	-0.3466783439475271	-0.004508435741232501	-0.1137945413004822	0.0002017709141159715	-0.2658748829482249	-0.2658748829482189	-0.03390434686421192	0.001168386140987334	-0.01381534540865015	-0.01215895723691618	-0.3324607869237078	0.01604831770880625	-1.403930508283944e-05	-0.3022594088514516	0.03380982971172596	0.03086782634311735	0.283950481763273	-28.94329969289693	-9.054717487590256	1.926161952939	7.598190018387124	-641.5021429430881	-47.66552827877206	-1.453446416430187	1.516341400489877	0.2442877860490256	1.939382002541677	-6.727702908748606	0.01732342067695988	-2.301745653535803	0.005703469831044585	-5.290506547286355	-5.290506547287102	-0.5058655255289003	0.09364589178956198	-0.7282632286917859	-0.3702550157393753	-3.271503371343923e-08	-1.76288129410307e-08	1.998346112120945e-07	8.330592296393411e-09	-5.066896106090655e-08	2.665608369400621e-07	-5.499164909969789e-08
1.06	-0.5469774589445746	-0.07906654074517763	0.5770558769978964	1.823909974234332	-0.4680340769515925	0.009419389263100032	-0.2617481925529205	1.379377199118806	1.379377199118726	-0.08332518302239231	-0.1745014338040562	0.2234416329409162	-0.008863290767016817	0.07611230507060332	0.0258012408158162	0.1211620732733384	-0.4139266659975573	-0.0043173956904082	-0.1365545973449936	0.0001526176100004161	-0.3187250580441489	-0.3187250580441475	-0.03918880578377047	0.002126109325300478	-0.02117543125681709	-0.01588645706219921	-0.3316845483523501	0.01625128350933005	-9.296400774227851e-05	-0.3018254546769356	0.03381633287868264	0.03103356910959886	0.2833993395340432	-28.90143195826893	-9.155246341375081	1.966422857494718	7.46476297422701	-640.9400289060617	-47.76631661620289	-1.513008393418043	1.546384077637214	0.2507209357366413	1.929981643094962	-6.733953229863154	0.01129301199359529	-2.237935562148304	-0.02543374955496354	-5.280636125121391	-5.280636125121283	-0.5785564286482536	0.08572543585687813	-0.7459703180156814	-0.3890986488180222	-4.009169728342686e-08	-2.566222406111959e-08	2.399179892983024e-07	9.597223504166345e-09	-6.008538572251849e-08	3.090437640628846e-07	-6.565953725465983e-08
